<?xml version="1.0" encoding="UTF-8"?>
<svg xmlns="http://www.w3.org/2000/svg" width="32" height="32" viewBox="0 0 32 32" shape-rendering="crispEdges">
  <rect width="32" height="32" fill="#a87144"/>

  <!-- BLOCK 1 -->
  <rect x="0" y="0" width="32" height="1" fill="#d59c69"/>
  <rect x="0" y="15" width="32" height="1" fill="#5e3a18"/>
  <rect x="0" y="1" width="1" height="14" fill="#c98a55"/>
  <rect x="15" y="1" width="1" height="14" fill="#8a5a2c"/>
  <rect x="16" y="1" width="1" height="14" fill="#c98a55"/>
  <rect x="31" y="1" width="1" height="14" fill="#8a5a2c"/>
  <!-- plank A grain -->
  <rect x="2" y="3" width="6" height="1" fill="#8d5a2c"/>
  <rect x="1" y="7" width="11" height="1" fill="#8d5a2c"/>
  <rect x="5" y="11" width="6" height="1" fill="#8d5a2c"/>
  <rect x="3" y="5" width="2" height="1" fill="#9a6334"/>
  <rect x="9" y="9" width="3" height="1" fill="#9a6334"/>
  <!-- plank B grain -->
  <rect x="18" y="4" width="9" height="1" fill="#8d5a2c"/>
  <rect x="20" y="8" width="6" height="1" fill="#8d5a2c"/>
  <rect x="17" y="12" width="10" height="1" fill="#8d5a2c"/>
  <rect x="22" y="6" width="3" height="1" fill="#9a6334"/>
  <rect x="25" y="10" width="2" height="1" fill="#9a6334"/>
  <!-- knothole in plank A around cols 5-8, rows 6-9 -->
  <rect x="6" y="6" width="2" height="1" fill="#6f4520"/>
  <rect x="5" y="7" width="1" height="2" fill="#6f4520"/>
  <rect x="8" y="7" width="1" height="2" fill="#6f4520"/>
  <rect x="6" y="9" width="2" height="1" fill="#6f4520"/>
  <rect x="6" y="7" width="2" height="2" fill="#3a2010"/>
  <rect x="6" y="7" width="1" height="1" fill="#5e3018"/>

  <!-- BLOCK 2 -->
  <rect x="0" y="16" width="32" height="1" fill="#d59c69"/>
  <rect x="0" y="31" width="32" height="1" fill="#5e3a18"/>
  <rect x="7" y="17" width="1" height="14" fill="#8a5a2c"/>
  <rect x="8" y="17" width="1" height="14" fill="#c98a55"/>
  <rect x="23" y="17" width="1" height="14" fill="#8a5a2c"/>
  <rect x="24" y="17" width="1" height="14" fill="#c98a55"/>
  <rect x="0" y="20" width="5" height="1" fill="#8d5a2c"/>
  <rect x="1" y="24" width="6" height="1" fill="#8d5a2c"/>
  <rect x="2" y="27" width="4" height="1" fill="#8d5a2c"/>
  <rect x="10" y="19" width="9" height="1" fill="#8d5a2c"/>
  <rect x="9" y="23" width="11" height="1" fill="#8d5a2c"/>
  <rect x="13" y="27" width="8" height="1" fill="#8d5a2c"/>
  <rect x="11" y="21" width="3" height="1" fill="#9a6334"/>
  <rect x="17" y="25" width="3" height="1" fill="#9a6334"/>
  <rect x="25" y="20" width="6" height="1" fill="#8d5a2c"/>
  <rect x="26" y="25" width="5" height="1" fill="#8d5a2c"/>
  <rect x="25" y="28" width="3" height="1" fill="#9a6334"/>
</svg>
