<?xml version="1.0" encoding="UTF-8"?>
<svg xmlns="http://www.w3.org/2000/svg" width="32" height="32" viewBox="0 0 32 32" shape-rendering="crispEdges">
<rect x="10" y="8" width="1" height="1" fill="#7b4ea3"/>
<rect x="11" y="8" width="1" height="1" fill="#7b4ea3"/>
<rect x="12" y="8" width="1" height="1" fill="#7b4ea3"/>
<rect x="13" y="8" width="1" height="1" fill="#7b4ea3"/>
<rect x="14" y="8" width="1" height="1" fill="#7b4ea3"/>
<rect x="15" y="8" width="1" height="1" fill="#7b4ea3"/>
<rect x="16" y="8" width="1" height="1" fill="#7b4ea3"/>
<rect x="17" y="8" width="1" height="1" fill="#7b4ea3"/>
<rect x="18" y="8" width="1" height="1" fill="#7b4ea3"/>
<rect x="19" y="8" width="1" height="1" fill="#7b4ea3"/>
<rect x="20" y="8" width="1" height="1" fill="#7b4ea3"/>
<rect x="21" y="8" width="1" height="1" fill="#7b4ea3"/>
<rect x="10" y="9" width="1" height="1" fill="#7b4ea3"/>
<rect x="11" y="9" width="1" height="1" fill="#a67dd2"/>
<rect x="12" y="9" width="1" height="1" fill="#a67dd2"/>
<rect x="13" y="9" width="1" height="1" fill="#a67dd2"/>
<rect x="14" y="9" width="1" height="1" fill="#a67dd2"/>
<rect x="15" y="9" width="1" height="1" fill="#a67dd2"/>
<rect x="16" y="9" width="1" height="1" fill="#a67dd2"/>
<rect x="17" y="9" width="1" height="1" fill="#a67dd2"/>
<rect x="18" y="9" width="1" height="1" fill="#a67dd2"/>
<rect x="19" y="9" width="1" height="1" fill="#a67dd2"/>
<rect x="20" y="9" width="1" height="1" fill="#a67dd2"/>
<rect x="21" y="9" width="1" height="1" fill="#7b4ea3"/>
<rect x="10" y="10" width="1" height="1" fill="#7b4ea3"/>
<rect x="11" y="10" width="1" height="1" fill="#a67dd2"/>
<rect x="12" y="10" width="1" height="1" fill="#a67dd2"/>
<rect x="13" y="10" width="1" height="1" fill="#a67dd2"/>
<rect x="14" y="10" width="1" height="1" fill="#a67dd2"/>
<rect x="15" y="10" width="1" height="1" fill="#a67dd2"/>
<rect x="16" y="10" width="1" height="1" fill="#a67dd2"/>
<rect x="17" y="10" width="1" height="1" fill="#a67dd2"/>
<rect x="18" y="10" width="1" height="1" fill="#a67dd2"/>
<rect x="19" y="10" width="1" height="1" fill="#a67dd2"/>
<rect x="20" y="10" width="1" height="1" fill="#a67dd2"/>
<rect x="21" y="10" width="1" height="1" fill="#7b4ea3"/>
<rect x="10" y="11" width="1" height="1" fill="#7b4ea3"/>
<rect x="11" y="11" width="1" height="1" fill="#a67dd2"/>
<rect x="12" y="11" width="1" height="1" fill="#243852"/>
<rect x="13" y="11" width="1" height="1" fill="#243852"/>
<rect x="14" y="11" width="1" height="1" fill="#243852"/>
<rect x="15" y="11" width="1" height="1" fill="#243852"/>
<rect x="16" y="11" width="1" height="1" fill="#243852"/>
<rect x="17" y="11" width="1" height="1" fill="#243852"/>
<rect x="18" y="11" width="1" height="1" fill="#243852"/>
<rect x="19" y="11" width="1" height="1" fill="#243852"/>
<rect x="20" y="11" width="1" height="1" fill="#a67dd2"/>
<rect x="21" y="11" width="1" height="1" fill="#7b4ea3"/>
<rect x="10" y="12" width="1" height="1" fill="#7b4ea3"/>
<rect x="11" y="12" width="1" height="1" fill="#a67dd2"/>
<rect x="12" y="12" width="1" height="1" fill="#243852"/>
<rect x="13" y="12" width="1" height="1" fill="#78d8f6"/>
<rect x="14" y="12" width="1" height="1" fill="#78d8f6"/>
<rect x="15" y="12" width="1" height="1" fill="#78d8f6"/>
<rect x="16" y="12" width="1" height="1" fill="#78d8f6"/>
<rect x="17" y="12" width="1" height="1" fill="#78d8f6"/>
<rect x="18" y="12" width="1" height="1" fill="#78d8f6"/>
<rect x="19" y="12" width="1" height="1" fill="#243852"/>
<rect x="20" y="12" width="1" height="1" fill="#a67dd2"/>
<rect x="21" y="12" width="1" height="1" fill="#7b4ea3"/>
<rect x="10" y="13" width="1" height="1" fill="#7b4ea3"/>
<rect x="11" y="13" width="1" height="1" fill="#a67dd2"/>
<rect x="12" y="13" width="1" height="1" fill="#243852"/>
<rect x="13" y="13" width="1" height="1" fill="#78d8f6"/>
<rect x="14" y="13" width="1" height="1" fill="#78d8f6"/>
<rect x="15" y="13" width="1" height="1" fill="#78d8f6"/>
<rect x="16" y="13" width="1" height="1" fill="#78d8f6"/>
<rect x="17" y="13" width="1" height="1" fill="#78d8f6"/>
<rect x="18" y="13" width="1" height="1" fill="#78d8f6"/>
<rect x="19" y="13" width="1" height="1" fill="#243852"/>
<rect x="20" y="13" width="1" height="1" fill="#a67dd2"/>
<rect x="21" y="13" width="1" height="1" fill="#7b4ea3"/>
<rect x="10" y="14" width="1" height="1" fill="#7b4ea3"/>
<rect x="11" y="14" width="1" height="1" fill="#a67dd2"/>
<rect x="12" y="14" width="1" height="1" fill="#243852"/>
<rect x="13" y="14" width="1" height="1" fill="#78d8f6"/>
<rect x="14" y="14" width="1" height="1" fill="#78d8f6"/>
<rect x="15" y="14" width="1" height="1" fill="#78d8f6"/>
<rect x="16" y="14" width="1" height="1" fill="#78d8f6"/>
<rect x="17" y="14" width="1" height="1" fill="#78d8f6"/>
<rect x="18" y="14" width="1" height="1" fill="#78d8f6"/>
<rect x="19" y="14" width="1" height="1" fill="#243852"/>
<rect x="20" y="14" width="1" height="1" fill="#a67dd2"/>
<rect x="21" y="14" width="1" height="1" fill="#7b4ea3"/>
<rect x="10" y="15" width="1" height="1" fill="#7b4ea3"/>
<rect x="11" y="15" width="1" height="1" fill="#a67dd2"/>
<rect x="12" y="15" width="1" height="1" fill="#243852"/>
<rect x="13" y="15" width="1" height="1" fill="#78d8f6"/>
<rect x="14" y="15" width="1" height="1" fill="#78d8f6"/>
<rect x="15" y="15" width="1" height="1" fill="#78d8f6"/>
<rect x="16" y="15" width="1" height="1" fill="#78d8f6"/>
<rect x="17" y="15" width="1" height="1" fill="#78d8f6"/>
<rect x="18" y="15" width="1" height="1" fill="#78d8f6"/>
<rect x="19" y="15" width="1" height="1" fill="#243852"/>
<rect x="20" y="15" width="1" height="1" fill="#a67dd2"/>
<rect x="21" y="15" width="1" height="1" fill="#7b4ea3"/>
<rect x="10" y="16" width="1" height="1" fill="#7b4ea3"/>
<rect x="11" y="16" width="1" height="1" fill="#a67dd2"/>
<rect x="12" y="16" width="1" height="1" fill="#243852"/>
<rect x="13" y="16" width="1" height="1" fill="#243852"/>
<rect x="14" y="16" width="1" height="1" fill="#243852"/>
<rect x="15" y="16" width="1" height="1" fill="#243852"/>
<rect x="16" y="16" width="1" height="1" fill="#243852"/>
<rect x="17" y="16" width="1" height="1" fill="#243852"/>
<rect x="18" y="16" width="1" height="1" fill="#243852"/>
<rect x="19" y="16" width="1" height="1" fill="#243852"/>
<rect x="20" y="16" width="1" height="1" fill="#a67dd2"/>
<rect x="21" y="16" width="1" height="1" fill="#7b4ea3"/>
<rect x="10" y="17" width="1" height="1" fill="#7b4ea3"/>
<rect x="11" y="17" width="1" height="1" fill="#a67dd2"/>
<rect x="12" y="17" width="1" height="1" fill="#a67dd2"/>
<rect x="13" y="17" width="1" height="1" fill="#a67dd2"/>
<rect x="14" y="17" width="1" height="1" fill="#a67dd2"/>
<rect x="15" y="17" width="1" height="1" fill="#a67dd2"/>
<rect x="16" y="17" width="1" height="1" fill="#a67dd2"/>
<rect x="17" y="17" width="1" height="1" fill="#a67dd2"/>
<rect x="18" y="17" width="1" height="1" fill="#a67dd2"/>
<rect x="19" y="17" width="1" height="1" fill="#a67dd2"/>
<rect x="20" y="17" width="1" height="1" fill="#a67dd2"/>
<rect x="21" y="17" width="1" height="1" fill="#7b4ea3"/>
<rect x="10" y="18" width="1" height="1" fill="#7b4ea3"/>
<rect x="11" y="18" width="1" height="1" fill="#a67dd2"/>
<rect x="12" y="18" width="1" height="1" fill="#6b4b36"/>
<rect x="13" y="18" width="1" height="1" fill="#6b4b36"/>
<rect x="14" y="18" width="1" height="1" fill="#6b4b36"/>
<rect x="15" y="18" width="1" height="1" fill="#6b4b36"/>
<rect x="16" y="18" width="1" height="1" fill="#6b4b36"/>
<rect x="17" y="18" width="1" height="1" fill="#6b4b36"/>
<rect x="18" y="18" width="1" height="1" fill="#6b4b36"/>
<rect x="19" y="18" width="1" height="1" fill="#6b4b36"/>
<rect x="20" y="18" width="1" height="1" fill="#a67dd2"/>
<rect x="21" y="18" width="1" height="1" fill="#7b4ea3"/>
<rect x="10" y="19" width="1" height="1" fill="#7b4ea3"/>
<rect x="11" y="19" width="1" height="1" fill="#a67dd2"/>
<rect x="12" y="19" width="1" height="1" fill="#6b4b36"/>
<rect x="13" y="19" width="1" height="1" fill="#6b4b36"/>
<rect x="14" y="19" width="1" height="1" fill="#6b4b36"/>
<rect x="15" y="19" width="1" height="1" fill="#6b4b36"/>
<rect x="16" y="19" width="1" height="1" fill="#6b4b36"/>
<rect x="17" y="19" width="1" height="1" fill="#6b4b36"/>
<rect x="18" y="19" width="1" height="1" fill="#6b4b36"/>
<rect x="19" y="19" width="1" height="1" fill="#6b4b36"/>
<rect x="20" y="19" width="1" height="1" fill="#a67dd2"/>
<rect x="21" y="19" width="1" height="1" fill="#7b4ea3"/>
<rect x="10" y="20" width="1" height="1" fill="#7b4ea3"/>
<rect x="11" y="20" width="1" height="1" fill="#a67dd2"/>
<rect x="12" y="20" width="1" height="1" fill="#a67dd2"/>
<rect x="13" y="20" width="1" height="1" fill="#a67dd2"/>
<rect x="14" y="20" width="1" height="1" fill="#db5967"/>
<rect x="15" y="20" width="1" height="1" fill="#a67dd2"/>
<rect x="16" y="20" width="1" height="1" fill="#a67dd2"/>
<rect x="17" y="20" width="1" height="1" fill="#f4ca67"/>
<rect x="18" y="20" width="1" height="1" fill="#a67dd2"/>
<rect x="19" y="20" width="1" height="1" fill="#a67dd2"/>
<rect x="20" y="20" width="1" height="1" fill="#a67dd2"/>
<rect x="21" y="20" width="1" height="1" fill="#7b4ea3"/>
<rect x="10" y="21" width="1" height="1" fill="#7b4ea3"/>
<rect x="11" y="21" width="1" height="1" fill="#a67dd2"/>
<rect x="12" y="21" width="1" height="1" fill="#a67dd2"/>
<rect x="13" y="21" width="1" height="1" fill="#a67dd2"/>
<rect x="14" y="21" width="1" height="1" fill="#a67dd2"/>
<rect x="15" y="21" width="1" height="1" fill="#a67dd2"/>
<rect x="16" y="21" width="1" height="1" fill="#a67dd2"/>
<rect x="17" y="21" width="1" height="1" fill="#a67dd2"/>
<rect x="18" y="21" width="1" height="1" fill="#a67dd2"/>
<rect x="19" y="21" width="1" height="1" fill="#a67dd2"/>
<rect x="20" y="21" width="1" height="1" fill="#a67dd2"/>
<rect x="21" y="21" width="1" height="1" fill="#7b4ea3"/>
<rect x="10" y="22" width="1" height="1" fill="#7b4ea3"/>
<rect x="11" y="22" width="1" height="1" fill="#a67dd2"/>
<rect x="12" y="22" width="1" height="1" fill="#a67dd2"/>
<rect x="13" y="22" width="1" height="1" fill="#a67dd2"/>
<rect x="14" y="22" width="1" height="1" fill="#a67dd2"/>
<rect x="15" y="22" width="1" height="1" fill="#a67dd2"/>
<rect x="16" y="22" width="1" height="1" fill="#a67dd2"/>
<rect x="17" y="22" width="1" height="1" fill="#a67dd2"/>
<rect x="18" y="22" width="1" height="1" fill="#a67dd2"/>
<rect x="19" y="22" width="1" height="1" fill="#a67dd2"/>
<rect x="20" y="22" width="1" height="1" fill="#a67dd2"/>
<rect x="21" y="22" width="1" height="1" fill="#7b4ea3"/>
<rect x="10" y="23" width="1" height="1" fill="#7b4ea3"/>
<rect x="11" y="23" width="1" height="1" fill="#7b4ea3"/>
<rect x="12" y="23" width="1" height="1" fill="#7b4ea3"/>
<rect x="13" y="23" width="1" height="1" fill="#7b4ea3"/>
<rect x="14" y="23" width="1" height="1" fill="#7b4ea3"/>
<rect x="15" y="23" width="1" height="1" fill="#7b4ea3"/>
<rect x="16" y="23" width="1" height="1" fill="#7b4ea3"/>
<rect x="17" y="23" width="1" height="1" fill="#7b4ea3"/>
<rect x="18" y="23" width="1" height="1" fill="#7b4ea3"/>
<rect x="19" y="23" width="1" height="1" fill="#7b4ea3"/>
<rect x="20" y="23" width="1" height="1" fill="#7b4ea3"/>
<rect x="21" y="23" width="1" height="1" fill="#7b4ea3"/>
<rect x="9" y="24" width="1" height="1" fill="#2d405c"/>
<rect x="10" y="24" width="1" height="1" fill="#2d405c"/>
<rect x="11" y="24" width="1" height="1" fill="#2d405c"/>
<rect x="12" y="24" width="1" height="1" fill="#2d405c"/>
<rect x="13" y="24" width="1" height="1" fill="#2d405c"/>
<rect x="14" y="24" width="1" height="1" fill="#2d405c"/>
<rect x="15" y="24" width="1" height="1" fill="#2d405c"/>
<rect x="16" y="24" width="1" height="1" fill="#2d405c"/>
<rect x="17" y="24" width="1" height="1" fill="#2d405c"/>
<rect x="18" y="24" width="1" height="1" fill="#2d405c"/>
<rect x="19" y="24" width="1" height="1" fill="#2d405c"/>
<rect x="20" y="24" width="1" height="1" fill="#2d405c"/>
<rect x="21" y="24" width="1" height="1" fill="#2d405c"/>
<rect x="22" y="24" width="1" height="1" fill="#2d405c"/>
<rect x="9" y="25" width="1" height="1" fill="#2d405c"/>
<rect x="10" y="25" width="1" height="1" fill="#2d405c"/>
<rect x="11" y="25" width="1" height="1" fill="#2d405c"/>
<rect x="12" y="25" width="1" height="1" fill="#2d405c"/>
<rect x="13" y="25" width="1" height="1" fill="#2d405c"/>
<rect x="14" y="25" width="1" height="1" fill="#2d405c"/>
<rect x="15" y="25" width="1" height="1" fill="#2d405c"/>
<rect x="16" y="25" width="1" height="1" fill="#2d405c"/>
<rect x="17" y="25" width="1" height="1" fill="#2d405c"/>
<rect x="18" y="25" width="1" height="1" fill="#2d405c"/>
<rect x="19" y="25" width="1" height="1" fill="#2d405c"/>
<rect x="20" y="25" width="1" height="1" fill="#2d405c"/>
<rect x="21" y="25" width="1" height="1" fill="#2d405c"/>
<rect x="22" y="25" width="1" height="1" fill="#2d405c"/>
<rect x="16" y="26" width="1" height="1" fill="#27374a"/>
<rect x="10" y="27" width="1" height="1" fill="#27374a"/>
<rect x="11" y="27" width="1" height="1" fill="#27374a"/>
<rect x="12" y="27" width="1" height="1" fill="#27374a"/>
<rect x="13" y="27" width="1" height="1" fill="#27374a"/>
<rect x="14" y="27" width="1" height="1" fill="#27374a"/>
<rect x="15" y="27" width="1" height="1" fill="#27374a"/>
<rect x="16" y="27" width="1" height="1" fill="#27374a"/>
<rect x="17" y="27" width="1" height="1" fill="#27374a"/>
<rect x="18" y="27" width="1" height="1" fill="#27374a"/>
<rect x="19" y="27" width="1" height="1" fill="#27374a"/>
<rect x="20" y="27" width="1" height="1" fill="#27374a"/>
<rect x="21" y="27" width="1" height="1" fill="#27374a"/>
<rect x="22" y="27" width="1" height="1" fill="#27374a"/>
<rect x="9" y="28" width="1" height="1" fill="#27374a"/>
<rect x="10" y="28" width="1" height="1" fill="#27374a"/>
<rect x="11" y="28" width="1" height="1" fill="#27374a"/>
<rect x="12" y="28" width="1" height="1" fill="#27374a"/>
<rect x="13" y="28" width="1" height="1" fill="#27374a"/>
<rect x="14" y="28" width="1" height="1" fill="#27374a"/>
<rect x="15" y="28" width="1" height="1" fill="#27374a"/>
<rect x="16" y="28" width="1" height="1" fill="#27374a"/>
<rect x="17" y="28" width="1" height="1" fill="#27374a"/>
<rect x="18" y="28" width="1" height="1" fill="#27374a"/>
<rect x="19" y="28" width="1" height="1" fill="#27374a"/>
<rect x="20" y="28" width="1" height="1" fill="#27374a"/>
<rect x="21" y="28" width="1" height="1" fill="#27374a"/>
<rect x="22" y="28" width="1" height="1" fill="#27374a"/>
<rect x="23" y="28" width="1" height="1" fill="#27374a"/>
<rect x="10" y="29" width="1" height="1" fill="#27374a"/>
<rect x="11" y="29" width="1" height="1" fill="#27374a"/>
<rect x="12" y="29" width="1" height="1" fill="#27374a"/>
<rect x="13" y="29" width="1" height="1" fill="#27374a"/>
<rect x="14" y="29" width="1" height="1" fill="#27374a"/>
<rect x="15" y="29" width="1" height="1" fill="#27374a"/>
<rect x="16" y="29" width="1" height="1" fill="#27374a"/>
<rect x="17" y="29" width="1" height="1" fill="#27374a"/>
<rect x="18" y="29" width="1" height="1" fill="#27374a"/>
<rect x="19" y="29" width="1" height="1" fill="#27374a"/>
<rect x="20" y="29" width="1" height="1" fill="#27374a"/>
<rect x="21" y="29" width="1" height="1" fill="#27374a"/>
<rect x="22" y="29" width="1" height="1" fill="#27374a"/>
<rect x="16" y="30" width="1" height="1" fill="#27374a"/>
</svg>
