<?xml version="1.0" encoding="UTF-8"?>
<svg xmlns="http://www.w3.org/2000/svg" width="32" height="32" viewBox="0 0 32 32" shape-rendering="crispEdges">
<rect x="20" y="8" width="1" height="1" fill="#9f7451"/>
<rect x="21" y="8" width="1" height="1" fill="#9f7451"/>
<rect x="22" y="8" width="1" height="1" fill="#9f7451"/>
<rect x="23" y="8" width="1" height="1" fill="#9f7451"/>
<rect x="24" y="8" width="1" height="1" fill="#9f7451"/>
<rect x="25" y="8" width="1" height="1" fill="#9f7451"/>
<rect x="19" y="9" width="1" height="1" fill="#6b4b36"/>
<rect x="20" y="9" width="1" height="1" fill="#6b4b36"/>
<rect x="21" y="9" width="1" height="1" fill="#6b4b36"/>
<rect x="22" y="9" width="1" height="1" fill="#6b4b36"/>
<rect x="23" y="9" width="1" height="1" fill="#6b4b36"/>
<rect x="24" y="9" width="1" height="1" fill="#6b4b36"/>
<rect x="25" y="9" width="1" height="1" fill="#6b4b36"/>
<rect x="26" y="9" width="1" height="1" fill="#6b4b36"/>
<rect x="19" y="10" width="1" height="1" fill="#6b4b36"/>
<rect x="20" y="10" width="1" height="1" fill="#6b4b36"/>
<rect x="21" y="10" width="1" height="1" fill="#6b4b36"/>
<rect x="22" y="10" width="1" height="1" fill="#6b4b36"/>
<rect x="23" y="10" width="1" height="1" fill="#6b4b36"/>
<rect x="24" y="10" width="1" height="1" fill="#6b4b36"/>
<rect x="25" y="10" width="1" height="1" fill="#6b4b36"/>
<rect x="26" y="10" width="1" height="1" fill="#6b4b36"/>
<rect x="19" y="11" width="1" height="1" fill="#6b4b36"/>
<rect x="20" y="11" width="1" height="1" fill="#6b4b36"/>
<rect x="21" y="11" width="1" height="1" fill="#6b4b36"/>
<rect x="22" y="11" width="1" height="1" fill="#ffd88a"/>
<rect x="23" y="11" width="1" height="1" fill="#ffd88a"/>
<rect x="24" y="11" width="1" height="1" fill="#ffd88a"/>
<rect x="25" y="11" width="1" height="1" fill="#e2c286"/>
<rect x="26" y="11" width="1" height="1" fill="#6b4b36"/>
<rect x="19" y="12" width="1" height="1" fill="#5f6878"/>
<rect x="23" y="12" width="1" height="1" fill="#e2c286"/>
<rect x="24" y="12" width="1" height="1" fill="#e2c286"/>
<rect x="25" y="12" width="1" height="1" fill="#e2c286"/>
<rect x="26" y="12" width="1" height="1" fill="#e2c286"/>
<rect x="27" y="12" width="1" height="1" fill="#e2c286"/>
<rect x="19" y="13" width="1" height="1" fill="#5f6878"/>
<rect x="22" y="13" width="1" height="1" fill="#e2c286"/>
<rect x="23" y="13" width="1" height="1" fill="#e2c286"/>
<rect x="24" y="13" width="1" height="1" fill="#e2c286"/>
<rect x="25" y="13" width="1" height="1" fill="#e2c286"/>
<rect x="26" y="13" width="1" height="1" fill="#e2c286"/>
<rect x="27" y="13" width="1" height="1" fill="#e2c286"/>
<rect x="28" y="13" width="1" height="1" fill="#e2c286"/>
<rect x="18" y="14" width="1" height="1" fill="#5f6878"/>
<rect x="23" y="14" width="1" height="1" fill="#e2c286"/>
<rect x="24" y="14" width="1" height="1" fill="#e2c286"/>
<rect x="25" y="14" width="1" height="1" fill="#e2c286"/>
<rect x="26" y="14" width="1" height="1" fill="#e2c286"/>
<rect x="27" y="14" width="1" height="1" fill="#e2c286"/>
<rect x="15" y="15" width="1" height="1" fill="#8d97aa"/>
<rect x="16" y="15" width="1" height="1" fill="#8d97aa"/>
<rect x="17" y="15" width="1" height="1" fill="#5f6878"/>
<rect x="25" y="15" width="1" height="1" fill="#e2c286"/>
<rect x="15" y="16" width="1" height="1" fill="#8d97aa"/>
<rect x="16" y="16" width="1" height="1" fill="#5f6878"/>
<rect x="15" y="17" width="1" height="1" fill="#8d97aa"/>
<rect x="16" y="17" width="1" height="1" fill="#8d97aa"/>
<rect x="15" y="18" width="1" height="1" fill="#8d97aa"/>
<rect x="16" y="18" width="1" height="1" fill="#8d97aa"/>
<rect x="15" y="19" width="1" height="1" fill="#8d97aa"/>
<rect x="16" y="19" width="1" height="1" fill="#8d97aa"/>
<rect x="15" y="20" width="1" height="1" fill="#8d97aa"/>
<rect x="16" y="20" width="1" height="1" fill="#8d97aa"/>
<rect x="15" y="21" width="1" height="1" fill="#8d97aa"/>
<rect x="16" y="21" width="1" height="1" fill="#8d97aa"/>
<rect x="15" y="22" width="1" height="1" fill="#8d97aa"/>
<rect x="16" y="22" width="1" height="1" fill="#8d97aa"/>
<rect x="15" y="23" width="1" height="1" fill="#8d97aa"/>
<rect x="16" y="23" width="1" height="1" fill="#8d97aa"/>
<rect x="11" y="24" width="1" height="1" fill="#5f6878"/>
<rect x="12" y="24" width="1" height="1" fill="#5f6878"/>
<rect x="13" y="24" width="1" height="1" fill="#5f6878"/>
<rect x="14" y="24" width="1" height="1" fill="#5f6878"/>
<rect x="15" y="24" width="1" height="1" fill="#8d97aa"/>
<rect x="16" y="24" width="1" height="1" fill="#8d97aa"/>
<rect x="17" y="24" width="1" height="1" fill="#5f6878"/>
<rect x="18" y="24" width="1" height="1" fill="#5f6878"/>
<rect x="19" y="24" width="1" height="1" fill="#5f6878"/>
<rect x="20" y="24" width="1" height="1" fill="#5f6878"/>
<rect x="11" y="25" width="1" height="1" fill="#5f6878"/>
<rect x="12" y="25" width="1" height="1" fill="#5f6878"/>
<rect x="13" y="25" width="1" height="1" fill="#5f6878"/>
<rect x="14" y="25" width="1" height="1" fill="#5f6878"/>
<rect x="15" y="25" width="1" height="1" fill="#5f6878"/>
<rect x="16" y="25" width="1" height="1" fill="#5f6878"/>
<rect x="17" y="25" width="1" height="1" fill="#5f6878"/>
<rect x="18" y="25" width="1" height="1" fill="#5f6878"/>
<rect x="19" y="25" width="1" height="1" fill="#5f6878"/>
<rect x="20" y="25" width="1" height="1" fill="#5f6878"/>
<rect x="16" y="26" width="1" height="1" fill="#27374a"/>
<rect x="10" y="27" width="1" height="1" fill="#27374a"/>
<rect x="11" y="27" width="1" height="1" fill="#27374a"/>
<rect x="12" y="27" width="1" height="1" fill="#27374a"/>
<rect x="13" y="27" width="1" height="1" fill="#27374a"/>
<rect x="14" y="27" width="1" height="1" fill="#27374a"/>
<rect x="15" y="27" width="1" height="1" fill="#27374a"/>
<rect x="16" y="27" width="1" height="1" fill="#27374a"/>
<rect x="17" y="27" width="1" height="1" fill="#27374a"/>
<rect x="18" y="27" width="1" height="1" fill="#27374a"/>
<rect x="19" y="27" width="1" height="1" fill="#27374a"/>
<rect x="20" y="27" width="1" height="1" fill="#27374a"/>
<rect x="21" y="27" width="1" height="1" fill="#27374a"/>
<rect x="22" y="27" width="1" height="1" fill="#27374a"/>
<rect x="9" y="28" width="1" height="1" fill="#27374a"/>
<rect x="10" y="28" width="1" height="1" fill="#27374a"/>
<rect x="11" y="28" width="1" height="1" fill="#27374a"/>
<rect x="12" y="28" width="1" height="1" fill="#27374a"/>
<rect x="13" y="28" width="1" height="1" fill="#27374a"/>
<rect x="14" y="28" width="1" height="1" fill="#27374a"/>
<rect x="15" y="28" width="1" height="1" fill="#27374a"/>
<rect x="16" y="28" width="1" height="1" fill="#27374a"/>
<rect x="17" y="28" width="1" height="1" fill="#27374a"/>
<rect x="18" y="28" width="1" height="1" fill="#27374a"/>
<rect x="19" y="28" width="1" height="1" fill="#27374a"/>
<rect x="20" y="28" width="1" height="1" fill="#27374a"/>
<rect x="21" y="28" width="1" height="1" fill="#27374a"/>
<rect x="22" y="28" width="1" height="1" fill="#27374a"/>
<rect x="23" y="28" width="1" height="1" fill="#27374a"/>
<rect x="10" y="29" width="1" height="1" fill="#27374a"/>
<rect x="11" y="29" width="1" height="1" fill="#27374a"/>
<rect x="12" y="29" width="1" height="1" fill="#27374a"/>
<rect x="13" y="29" width="1" height="1" fill="#27374a"/>
<rect x="14" y="29" width="1" height="1" fill="#27374a"/>
<rect x="15" y="29" width="1" height="1" fill="#27374a"/>
<rect x="16" y="29" width="1" height="1" fill="#27374a"/>
<rect x="17" y="29" width="1" height="1" fill="#27374a"/>
<rect x="18" y="29" width="1" height="1" fill="#27374a"/>
<rect x="19" y="29" width="1" height="1" fill="#27374a"/>
<rect x="20" y="29" width="1" height="1" fill="#27374a"/>
<rect x="21" y="29" width="1" height="1" fill="#27374a"/>
<rect x="22" y="29" width="1" height="1" fill="#27374a"/>
<rect x="16" y="30" width="1" height="1" fill="#27374a"/>
</svg>
