<?xml version="1.0" encoding="UTF-8"?>
<svg xmlns="http://www.w3.org/2000/svg" width="32" height="32" viewBox="0 0 32 32" shape-rendering="crispEdges">
  <rect x="8" y="9" width="1" height="1" fill="#6f4a34"/>
  <rect x="9" y="8" width="14" height="1" fill="#6f4a34"/>
  <rect x="7" y="10" width="1" height="12" fill="#6f4a34"/>
  <rect x="24" y="10" width="1" height="12" fill="#6f4a34"/>
  <rect x="9" y="23" width="14" height="1" fill="#6f4a34"/>
  <rect x="8" y="22" width="1" height="1" fill="#6f4a34"/>
  <rect x="23" y="22" width="1" height="1" fill="#6f4a34"/>
  <rect x="8" y="10" width="16" height="12" fill="#9f7451"/>
  <rect x="10" y="11" width="12" height="10" fill="#c9a173"/>
  <rect x="12" y="13" width="8" height="6" fill="#ead6aa"/>
  <rect x="11" y="12" width="10" height="1" fill="#8c6142"/>
  <rect x="11" y="19" width="10" height="1" fill="#8c6142"/>
  <rect x="10" y="14" width="1" height="4" fill="#8c6142"/>
  <rect x="21" y="14" width="1" height="4" fill="#8c6142"/>
  <rect x="13" y="15" width="6" height="2" fill="#a56547"/>
  <rect x="6" y="24" width="3" height="1" fill="#d8c59d"/>
  <rect x="23" y="24" width="3" height="1" fill="#d8c59d"/>
  <rect x="10" y="25" width="1" height="1" fill="#4b3224" opacity="0.45"/>
  <rect x="11" y="25" width="12" height="1" fill="#4b3224" opacity="0.45"/>
  <rect x="23" y="25" width="1" height="1" fill="#4b3224" opacity="0.45"/>
</svg>
